<?xml version="1.0" encoding="UTF-8" standalone="no"?>
<!DOCTYPE svg PUBLIC "-//W3C//DTD SVG 1.1//EN"
 "http://www.w3.org/Graphics/SVG/1.1/DTD/svg11.dtd">
<!-- Generated by graphviz version 12.1.2 (20240928.0832)
 -->
<!-- Title: G Pages: 1 -->
<svg width="239pt" height="193pt"
 viewBox="0.00 0.00 238.70 192.95" xmlns="http://www.w3.org/2000/svg" xmlns:xlink="http://www.w3.org/1999/xlink">
<g id="graph0" class="graph" transform="scale(1 1) rotate(0) translate(21.6 171.35)">
<title>G</title>
<polygon fill="#111111" stroke="none" points="-21.6,21.6 -21.6,-171.35 217.1,-171.35 217.1,21.6 -21.6,21.6"/>
<!-- destined.js -->
<g id="node1" class="node">
<title>destined.js</title>
<path fill="none" stroke="#c6c5fe" d="M72.58,-86.75C72.58,-86.75 7.92,-86.75 7.92,-86.75 3.96,-86.75 0,-82.79 0,-78.83 0,-78.83 0,-70.92 0,-70.92 0,-66.96 3.96,-63 7.92,-63 7.92,-63 72.58,-63 72.58,-63 76.54,-63 80.5,-66.96 80.5,-70.92 80.5,-70.92 80.5,-78.83 80.5,-78.83 80.5,-82.79 76.54,-86.75 72.58,-86.75"/>
<text text-anchor="middle" x="40.25" y="-69.45" font-family="Arial" font-size="14.00" fill="#c6c5fe">destined.js</text>
</g>
<!-- dig&#45;up.js -->
<g id="node2" class="node">
<title>dig&#45;up.js</title>
<path fill="none" stroke="#cfffac" d="M181.58,-149.75C181.58,-149.75 130.42,-149.75 130.42,-149.75 126.46,-149.75 122.5,-145.79 122.5,-141.83 122.5,-141.83 122.5,-133.92 122.5,-133.92 122.5,-129.96 126.46,-126 130.42,-126 130.42,-126 181.58,-126 181.58,-126 185.54,-126 189.5,-129.96 189.5,-133.92 189.5,-133.92 189.5,-141.83 189.5,-141.83 189.5,-145.79 185.54,-149.75 181.58,-149.75"/>
<text text-anchor="middle" x="156" y="-132.45" font-family="Arial" font-size="14.00" fill="#cfffac">dig&#45;up.js</text>
</g>
<!-- destined.js&#45;&gt;dig&#45;up.js -->
<g id="edge1" class="edge">
<title>destined.js&#45;&gt;dig&#45;up.js</title>
<path fill="none" stroke="#757575" d="M63.28,-87.24C78.26,-95.64 98.55,-106.97 116.5,-116.88 118.53,-118 120.62,-119.15 122.74,-120.31"/>
<polygon fill="#757575" stroke="#757575" points="120.81,-123.24 131.26,-124.97 124.17,-117.1 120.81,-123.24"/>
</g>
<!-- fs.js -->
<g id="node3" class="node">
<title>fs.js</title>
<path fill="none" stroke="#cfffac" d="M175.08,-107.75C175.08,-107.75 136.92,-107.75 136.92,-107.75 132.96,-107.75 129,-103.79 129,-99.83 129,-99.83 129,-91.92 129,-91.92 129,-87.96 132.96,-84 136.92,-84 136.92,-84 175.08,-84 175.08,-84 179.04,-84 183,-87.96 183,-91.92 183,-91.92 183,-99.83 183,-99.83 183,-103.79 179.04,-107.75 175.08,-107.75"/>
<text text-anchor="middle" x="156" y="-90.45" font-family="Arial" font-size="14.00" fill="#cfffac">fs.js</text>
</g>
<!-- destined.js&#45;&gt;fs.js -->
<g id="edge2" class="edge">
<title>destined.js&#45;&gt;fs.js</title>
<path fill="none" stroke="#757575" d="M80.71,-82.16C92.65,-84.36 105.72,-86.78 117.52,-88.96"/>
<polygon fill="#757575" stroke="#757575" points="116.85,-92.39 127.32,-90.77 118.12,-85.51 116.85,-92.39"/>
</g>
<!-- interpret.js -->
<g id="node4" class="node">
<title>interpret.js</title>
<path fill="none" stroke="#cfffac" d="M187.58,-65.75C187.58,-65.75 124.42,-65.75 124.42,-65.75 120.46,-65.75 116.5,-61.79 116.5,-57.83 116.5,-57.83 116.5,-49.92 116.5,-49.92 116.5,-45.96 120.46,-42 124.42,-42 124.42,-42 187.58,-42 187.58,-42 191.54,-42 195.5,-45.96 195.5,-49.92 195.5,-49.92 195.5,-57.83 195.5,-57.83 195.5,-61.79 191.54,-65.75 187.58,-65.75"/>
<text text-anchor="middle" x="156" y="-48.45" font-family="Arial" font-size="14.00" fill="#cfffac">interpret.js</text>
</g>
<!-- destined.js&#45;&gt;interpret.js -->
<g id="edge3" class="edge">
<title>destined.js&#45;&gt;interpret.js</title>
<path fill="none" stroke="#757575" d="M80.71,-67.59C88.57,-66.14 96.91,-64.6 105.05,-63.1"/>
<polygon fill="#757575" stroke="#757575" points="105.69,-66.54 114.88,-61.28 104.42,-59.65 105.69,-66.54"/>
</g>
<!-- path.js -->
<g id="node5" class="node">
<title>path.js</title>
<path fill="none" stroke="#cfffac" d="M175.96,-23.75C175.96,-23.75 136.04,-23.75 136.04,-23.75 132.08,-23.75 128.12,-19.79 128.12,-15.83 128.12,-15.83 128.12,-7.92 128.12,-7.92 128.12,-3.96 132.08,0 136.04,0 136.04,0 175.96,0 175.96,0 179.92,0 183.88,-3.96 183.88,-7.92 183.88,-7.92 183.88,-15.83 183.88,-15.83 183.88,-19.79 179.92,-23.75 175.96,-23.75"/>
<text text-anchor="middle" x="156" y="-6.45" font-family="Arial" font-size="14.00" fill="#cfffac">path.js</text>
</g>
<!-- destined.js&#45;&gt;path.js -->
<g id="edge4" class="edge">
<title>destined.js&#45;&gt;path.js</title>
<path fill="none" stroke="#757575" d="M63.28,-62.51C78.26,-54.11 98.55,-42.78 116.5,-32.88 118.53,-31.75 120.62,-30.6 122.74,-29.44"/>
<polygon fill="#757575" stroke="#757575" points="124.17,-32.65 131.26,-24.78 120.81,-26.51 124.17,-32.65"/>
</g>
</g>
</svg>
